<svg xmlns="http://www.w3.org/2000/svg" viewBox="0 0 64 64">
  <defs>
    <linearGradient id="g" x1="0" y1="0" x2="1" y2="1">
      <stop offset="0" stop-color="#7c5cff" />
      <stop offset="1" stop-color="#37d0ff" />
    </linearGradient>
    <radialGradient id="glow" cx="30%" cy="25%" r="80%">
      <stop offset="0" stop-color="#2ee59d" stop-opacity="0.55" />
      <stop offset="1" stop-color="#2ee59d" stop-opacity="0" />
    </radialGradient>
  </defs>
  <rect width="64" height="64" rx="16" fill="url(#g)" />
  <rect width="64" height="64" rx="16" fill="url(#glow)" />
  <path
    d="M18 22h28a4 4 0 0 1 0 8H30v5h14a4 4 0 0 1 0 8H30v5a4 4 0 0 1-8 0v-5h-4a4 4 0 1 1 0-8h4v-5h-4a4 4 0 1 1 0-8h4v-4a4 4 0 0 1 8 0v4Z"
    fill="rgba(11,16,32,0.85)"
  />
</svg>
